<svg xmlns="http://www.w3.org/2000/svg" style="display: none">
  <symbol id="icon-edit" viewBox="0 0 24 24" fill="none" stroke="currentColor" stroke-width="2" stroke-linecap="round" stroke-linejoin="round">
    <path d="M12 20h9" />
    <path d="M16.5 3.5a2.121 2.121 0 0 1 3 3L7 19l-4 1 1-4Z" />
  </symbol>

  <symbol id="icon-close" viewBox="0 0 24 24" fill="none" stroke="currentColor" stroke-width="2" stroke-linecap="round" stroke-linejoin="round">
    <path d="M18 6 6 18" />
    <path d="m6 6 12 12" />
  </symbol>

  <symbol id="icon-star-filled" viewBox="0 0 24 24" fill="currentColor" stroke="currentColor" stroke-width="1.5" stroke-linejoin="round">
    <path d="m12 2 3.09 6.26L22 9.27l-5 4.87 1.18 6.88L12 17.77l-6.18 3.25L7 14.14 2 9.27l6.91-1.01L12 2Z" />
  </symbol>

  <symbol id="icon-star-outline" viewBox="0 0 24 24" fill="none" stroke="currentColor" stroke-width="1.5" stroke-linejoin="round">
    <path d="m12 2 3.09 6.26L22 9.27l-5 4.87 1.18 6.88L12 17.77l-6.18 3.25L7 14.14 2 9.27l6.91-1.01L12 2Z" />
  </symbol>

  <symbol id="icon-restore" viewBox="0 0 24 24" fill="none" stroke="currentColor" stroke-width="2" stroke-linecap="round" stroke-linejoin="round">
    <path d="M3 12a9 9 0 1 0 3-6.7" />
    <path d="M3 4v5h5" />
  </symbol>

  <symbol id="icon-delete" viewBox="0 0 72 72">
  <defs><clipPath id="36aa4b28ec"><path d="M 11 21 L 61 21 L 61 69.667969 L 11 69.667969 Z M 11 21 " clip-rule="nonzero"/></clipPath><clipPath id="5037a812a1"><path d="M 6.734375 2.167969 L 65.234375 2.167969 L 65.234375 18 L 6.734375 18 Z M 6.734375 2.167969 " clip-rule="nonzero"/></clipPath></defs><g clip-path="url(#36aa4b28ec)"><path fill="#e41c1c" d="M 17.050781 64.484375 C 17.429688 67.53125 20.023438 69.820312 23.09375 69.820312 L 48.894531 69.820312 C 51.964844 69.820312 54.558594 67.53125 54.9375 64.484375 L 60.363281 21.078125 L 11.625 21.078125 Z M 46.152344 31.710938 C 46.234375 30.707031 47.109375 29.976562 48.125 30.042969 C 49.132812 30.125 49.878906 31.007812 49.792969 32.015625 L 47.527344 59.191406 C 47.449219 60.144531 46.648438 60.867188 45.707031 60.867188 C 45.65625 60.867188 45.605469 60.863281 45.554688 60.859375 C 44.546875 60.777344 43.800781 59.890625 43.882812 58.886719 Z M 34.167969 31.863281 C 34.167969 30.851562 34.984375 30.035156 35.992188 30.035156 C 37.003906 30.035156 37.820312 30.851562 37.820312 31.863281 L 37.820312 59.039062 C 37.820312 60.046875 37.003906 60.867188 35.992188 60.867188 C 34.984375 60.867188 34.167969 60.046875 34.167969 59.039062 Z M 23.863281 30.042969 C 24.882812 29.972656 25.753906 30.707031 25.835938 31.710938 L 28.101562 58.886719 C 28.1875 59.890625 27.441406 60.777344 26.433594 60.859375 C 26.382812 60.863281 26.332031 60.867188 26.28125 60.867188 C 25.339844 60.867188 24.539062 60.144531 24.460938 59.191406 L 22.195312 32.015625 C 22.109375 31.007812 22.859375 30.125 23.863281 30.042969 Z M 23.863281 30.042969 " fill-opacity="1" fill-rule="nonzero"/></g><g clip-path="url(#5037a812a1)"><path fill="#e41c1c" d="M 62.207031 11.257812 L 45.714844 11.257812 L 45.714844 9.480469 C 45.714844 5.449219 42.4375 2.167969 38.40625 2.167969 L 33.585938 2.167969 C 29.550781 2.167969 26.273438 5.449219 26.273438 9.480469 L 26.273438 11.257812 L 9.78125 11.257812 C 8.101562 11.257812 6.738281 12.621094 6.738281 14.304688 C 6.738281 15.988281 8.101562 17.351562 9.78125 17.351562 L 62.207031 17.351562 C 63.886719 17.351562 65.25 15.988281 65.25 14.304688 C 65.25 12.621094 63.886719 11.257812 62.207031 11.257812 Z M 31.753906 9.480469 C 31.753906 8.472656 32.574219 7.652344 33.585938 7.652344 L 38.40625 7.652344 C 39.414062 7.652344 40.230469 8.472656 40.230469 9.480469 L 40.230469 11.257812 L 31.753906 11.257812 Z M 31.753906 9.480469 " fill-opacity="1" fill-rule="nonzero"/></g>
  </symbol>

  <symbol id="icon-plus" viewBox="0 0 24 24" fill="none" stroke="currentColor" stroke-width="2.5" stroke-linecap="round" stroke-linejoin="round">
    <path d="M12 5v14" />
    <path d="M5 12h14" />
  </symbol>

</svg>
